<svg width="63" height="19" viewBox="0 0 63 19" fill="none" xmlns="http://www.w3.org/2000/svg">
<path d="M11.0352 11.2031H4.40234V18H0.289062V0.9375H11.7031V4.11328H4.40234V8.03906H11.0352V11.2031ZM17.3984 18H13.4375V5.32031H17.3984V18ZM13.2031 2.05078C13.2031 1.48828 13.4062 1.02734 13.8125 0.667969C14.2188 0.308594 14.7461 0.128906 15.3945 0.128906C16.043 0.128906 16.5703 0.308594 16.9766 0.667969C17.3828 1.02734 17.5859 1.48828 17.5859 2.05078C17.5859 2.61328 17.3828 3.07422 16.9766 3.43359C16.5703 3.79297 16.043 3.97266 15.3945 3.97266C14.7461 3.97266 14.2188 3.79297 13.8125 3.43359C13.4062 3.07422 13.2031 2.61328 13.2031 2.05078ZM24.9805 8.8125L26.8203 5.32031H30.9219L27.582 11.4961L31.0859 18H26.9609L24.9688 14.25L23.0117 18H18.8633L22.3789 11.4961L19.0508 5.32031H23.1992L24.9805 8.8125ZM37.332 8.8125L39.1719 5.32031H43.2734L39.9336 11.4961L43.4375 18H39.3125L37.3203 14.25L35.3633 18H31.2148L34.7305 11.4961L31.4023 5.32031H35.5508L37.332 8.8125ZM43.5781 11.543C43.5781 10.2773 43.8242 9.15234 44.3164 8.16797C44.8086 7.17578 45.5156 6.41406 46.4375 5.88281C47.3594 5.35156 48.4414 5.08594 49.6836 5.08594C51.582 5.08594 53.0781 5.67578 54.1719 6.85547C55.2656 8.02734 55.8125 9.625 55.8125 11.6484V11.7891C55.8125 13.7656 55.2617 15.3359 54.1602 16.5C53.0664 17.6562 51.582 18.2344 49.707 18.2344C47.9023 18.2344 46.4531 17.6953 45.3594 16.6172C44.2656 15.5312 43.6758 14.0625 43.5898 12.2109L43.5781 11.543ZM47.5273 11.7891C47.5273 12.9609 47.7109 13.8203 48.0781 14.3672C48.4453 14.9141 48.9883 15.1875 49.707 15.1875C51.1133 15.1875 51.832 14.1055 51.8633 11.9414V11.543C51.8633 9.26953 51.1367 8.13281 49.6836 8.13281C48.3633 8.13281 47.6484 9.11328 47.5391 11.0742L47.5273 11.7891ZM59.9961 14.168C60.6211 14.168 61.1406 14.3555 61.5547 14.7305C61.9688 15.0977 62.1758 15.5703 62.1758 16.1484C62.1758 16.7266 61.9688 17.2031 61.5547 17.5781C61.1406 17.9453 60.6211 18.1289 59.9961 18.1289C59.3633 18.1289 58.8398 17.9414 58.4258 17.5664C58.0195 17.1914 57.8164 16.7188 57.8164 16.1484C57.8164 15.5781 58.0195 15.1055 58.4258 14.7305C58.8398 14.3555 59.3633 14.168 59.9961 14.168Z" fill="#3A2F2F"/>
</svg>
